<?xml version="1.0" standalone="no"?>
<!DOCTYPE svg PUBLIC "-//W3C//DTD SVG 20010904//EN"
 "http://www.w3.org/TR/2001/REC-SVG-20010904/DTD/svg10.dtd">
<svg version="1.0" xmlns="http://www.w3.org/2000/svg"
 width="236.000000pt" height="134.000000pt" viewBox="0 0 236.000000 134.000000"
 preserveAspectRatio="xMidYMid meet">
<metadata>
Created by potrace 1.10, written by Peter Selinger 2001-2011
</metadata>
<g transform="translate(0.000000,134.000000) scale(0.100000,-0.100000)"
fill="#000000" stroke="none">
<path d="M12 1320 c-9 -15 -12 -166 -12 -653 0 -601 1 -635 18 -650 17 -16
113 -17 1170 -17 1128 0 1152 0 1162 19 6 13 10 235 10 653 -1 510 -3 636 -14
651 -12 16 -80 17 -1167 17 -1141 0 -1154 0 -1167 -20z m2318 -650 l0 -640
-1150 0 -1150 0 0 640 0 640 1150 0 1150 0 0 -640z"/>
<path d="M60 670 l0 -610 728 2 c400 1 693 4 652 5 -51 3 -70 7 -60 13 21 14
-35 13 -60 0 -10 -6 -21 -6 -24 -2 -3 5 -26 6 -52 2 -26 -4 -61 -4 -78 -1 -36
8 -432 5 -445 -4 -5 -3 -11 -1 -13 3 -4 12 -58 24 -58 13 0 -5 -58 -8 -132 -6
-73 1 -133 3 -133 5 0 8 -130 8 -168 -1 -36 -8 -52 -8 -60 0 -6 6 -21 11 -33
11 -12 0 -24 8 -28 17 -3 10 -9 24 -12 31 -3 7 1 12 12 12 16 0 16 1 -2 14
-16 13 -17 18 -7 35 8 13 9 22 3 26 -13 8 -13 65 1 65 5 0 7 5 3 12 -4 6 1 17
11 25 18 12 18 13 1 13 -12 0 -16 5 -12 16 3 9 6 18 6 20 0 2 9 4 20 4 11 0
20 5 20 10 0 6 -13 10 -28 10 -23 0 -28 4 -28 25 0 20 5 25 26 26 23 1 23 1
-6 10 -28 8 -31 12 -29 46 l3 38 57 3 c46 2 56 6 51 18 -3 9 -6 27 -6 41 0 15
-3 23 -7 19 -4 -4 -8 -17 -8 -29 0 -18 -6 -22 -34 -22 -30 0 -34 3 -37 30 -9
71 -10 267 -2 271 5 3 6 15 3 27 -19 64 -20 61 13 37 21 -16 48 -24 84 -26 29
-1 41 0 25 2 -15 3 -25 9 -22 14 3 5 0 12 -6 16 -8 4 -9 3 -5 -4 8 -13 -22
-16 -39 -4 -32 22 -55 68 -55 107 0 52 24 85 82 114 24 11 35 21 25 21 -27 0
-58 -18 -96 -57 -19 -20 -30 -27 -26 -17 4 11 8 44 9 74 1 43 4 55 17 55 9 0
24 8 33 18 17 16 15 17 -28 17 l-46 0 0 -610z"/>
<path d="M157 1267 c-4 -10 10 -13 59 -12 36 0 66 -4 68 -10 2 -5 3 0 3 13 -1
20 -6 22 -63 22 -42 0 -63 -4 -67 -13z"/>
<path d="M308 1273 c6 -2 12 -11 12 -18 0 -10 6 -11 28 -3 16 6 48 8 75 4 44
-7 47 -9 52 -44 11 -61 12 -60 16 6 l4 62 -100 -1 c-55 0 -94 -3 -87 -6z"/>
<path d="M529 1266 c8 -9 11 -43 9 -93 -3 -70 -5 -78 -23 -78 -12 0 -21 8 -23
19 -9 47 -108 98 -188 97 -30 0 -62 -4 -71 -10 -12 -6 -2 -7 30 -4 66 8 136
-12 175 -50 17 -17 32 -36 32 -43 0 -6 11 -15 25 -18 l25 -7 -24 -22 c-21 -19
-22 -25 -11 -41 12 -16 14 -16 17 11 2 18 10 29 22 31 15 3 18 0 14 -16 -4
-15 -2 -19 10 -15 12 5 14 -1 10 -39 -6 -52 -3 -59 33 -75 23 -10 26 -9 37 20
15 38 8 46 -19 22 -25 -24 -37 -9 -33 42 2 28 -3 40 -24 58 -15 13 -24 26 -21
30 4 3 13 0 20 -8 12 -11 13 -1 10 70 -2 52 1 89 8 97 8 10 34 12 102 9 51 -2
95 -6 99 -8 4 -3 10 4 13 15 5 19 0 20 -130 20 -115 0 -134 -2 -124 -14z"/>
<path d="M815 1265 c15 -48 12 -46 47 -32 18 8 39 12 46 10 6 -3 12 2 12 11 0
9 7 16 15 16 9 0 15 -10 15 -26 0 -17 -4 -23 -12 -18 -7 4 -10 3 -5 -1 4 -5 1
-18 -7 -29 -7 -12 -12 -36 -11 -54 2 -29 1 -31 -13 -20 -12 10 -14 10 -8 1 5
-9 1 -13 -11 -14 -14 0 -14 -2 5 -9 26 -11 30 -22 5 -13 -13 4 -15 3 -8 -5 6
-6 21 -12 35 -14 28 -3 30 -30 4 -55 -19 -19 -18 -70 1 -90 14 -13 17 -12 35
9 24 28 24 31 5 69 -18 34 -12 52 16 44 11 -4 19 -2 19 4 0 6 -6 11 -14 11 -8
0 -24 21 -36 46 -19 38 -21 49 -11 68 14 26 51 52 51 35 0 -6 9 -8 22 -4 16 6
20 4 15 -8 -3 -9 -2 -17 2 -19 14 -5 24 -48 11 -48 -6 0 -8 -5 -5 -10 3 -6 -1
-17 -10 -26 -11 -11 -14 -26 -9 -49 3 -18 1 -42 -6 -55 -9 -17 -8 -26 5 -46
16 -25 16 -25 -5 -14 -17 9 -25 9 -34 -1 -8 -9 -8 -10 1 -5 16 9 75 -22 70
-37 -2 -7 -15 -18 -30 -25 -23 -11 -26 -17 -20 -45 9 -48 32 -60 55 -31 15 18
17 28 9 43 -19 35 -14 50 17 46 20 -2 26 -7 24 -21 -12 -72 3 -108 31 -79 13
13 15 33 11 118 -3 56 -8 109 -11 117 -3 8 -4 55 -3 103 1 49 -3 94 -9 101 -7
8 -6 20 4 39 l14 27 -164 0 c-142 0 -164 -2 -160 -15z m261 -24 c7 0 14 -14
16 -31 3 -22 1 -30 -11 -31 -11 0 -9 -3 5 -9 16 -6 20 -15 17 -33 -3 -14 -13
-27 -22 -30 -14 -3 -16 2 -13 30 4 28 -2 39 -35 73 l-40 39 36 -3 c20 -2 41
-4 47 -5z m28 -167 c19 -7 21 -31 4 -36 -9 -3 -8 -9 5 -22 24 -24 22 -43 -2
-22 -18 17 -22 17 -50 3 -32 -16 -42 -8 -16 13 20 16 19 28 -2 32 -15 3 -15 4
1 21 18 18 34 21 60 11z m-18 -90 c12 -3 26 -16 32 -29 9 -18 7 -27 -9 -44
-21 -23 -28 -25 -45 -13 -23 15 -32 45 -21 69 11 25 12 25 43 17z"/>
<path d="M1169 1266 c9 -10 11 -62 8 -178 -2 -90 -1 -150 4 -135 12 42 27 55
62 54 23 -2 35 -9 43 -27 27 -55 50 -215 33 -225 -5 -4 -9 -18 -9 -33 1 -22 4
-18 20 22 15 37 17 54 9 69 -6 11 -9 53 -7 93 3 62 1 74 -12 74 -17 0 -52 35
-43 43 2 3 -14 3 -36 0 -41 -6 -41 -5 -41 27 0 24 3 30 13 23 6 -5 41 -10 77
-12 36 -2 66 -4 67 -5 7 -6 9 -87 2 -92 -5 -3 -9 -24 -9 -47 0 -37 3 -44 31
-56 23 -10 34 -10 42 -2 6 6 19 11 30 11 14 0 17 5 11 23 -3 12 -11 23 -15 25
-20 8 -7 23 14 18 12 -3 17 -3 10 0 -21 10 -26 68 -9 109 9 21 15 39 14 40 -2
2 -19 13 -38 25 -19 12 -27 20 -17 16 9 -3 17 -1 17 4 0 6 -11 10 -23 10 -25
0 -57 -28 -57 -48 0 -13 -43 -15 -113 -6 -42 6 -45 8 -41 33 6 36 39 61 80 61
31 0 45 12 26 24 -11 6 -92 -16 -92 -26 0 -4 -4 -8 -10 -8 -5 0 -10 18 -10 40
l0 40 48 2 c26 1 63 3 82 3 19 1 45 -2 58 -6 16 -6 22 -5 22 6 0 8 7 15 16 15
8 0 12 -5 9 -11 -5 -7 18 -8 71 -4 57 4 80 2 86 -7 6 -11 8 -11 8 0 0 19 131
4 147 -17 11 -14 12 -12 13 11 0 14 6 29 13 31 6 3 -129 6 -302 6 -270 1 -312
-1 -302 -13z m269 -207 c3 -39 -15 -63 -42 -53 -9 3 -16 15 -16 25 0 14 8 19
28 20 l27 2 -27 4 c-20 3 -28 10 -28 24 0 16 6 20 28 17 23 -3 27 -8 30 -39z
m-3 -115 c0 -21 4 -44 8 -51 5 -8 -1 -8 -19 2 -15 8 -31 12 -35 10 -7 -5 -10
65 -3 76 2 3 13 5 26 4 20 -1 23 -7 23 -41z"/>
<path d="M1798 1273 c8 -3 12 -27 12 -66 l1 -62 14 34 c8 18 15 45 15 58 0 25
1 25 73 21 39 -3 80 -8 90 -12 12 -6 17 -4 17 8 0 9 7 16 15 16 8 0 15 -7 15
-15 0 -8 7 -15 15 -15 8 0 15 4 15 10 0 8 129 8 193 1 4 -1 4 -142 1 -313 -3
-172 -6 -323 -5 -335 1 -21 -3 -23 -60 -23 -33 0 -58 4 -55 8 2 4 1 14 -5 22
-7 13 -9 12 -9 -2 0 -9 -3 -23 -6 -32 -5 -14 5 -16 73 -16 l80 0 -2 -42 c-1
-31 -6 -43 -21 -49 -10 -4 -13 -8 -6 -8 6 -1 12 -10 12 -21 0 -11 5 -20 10
-20 6 0 10 -7 10 -16 0 -12 -6 -15 -22 -9 -13 3 -34 9 -48 11 -25 4 -25 4 -2
-6 13 -5 29 -16 36 -23 18 -18 30 -121 17 -146 -6 -11 -7 -22 -3 -25 5 -3 8
-28 7 -57 -2 -66 -13 -72 -115 -61 -63 6 -83 5 -92 -5 -6 -7 -18 -13 -26 -13
-13 0 -12 3 3 14 17 12 14 13 -28 12 -26 -1 -50 -5 -53 -9 -12 -11 -106 -8
-99 3 3 5 -1 10 -9 10 -9 0 -16 -4 -16 -9 0 -5 -43 -10 -95 -10 -52 0 -99 -3
-105 -6 -5 -3 -18 -1 -27 4 -13 7 -14 10 -4 11 8 0 12 2 9 5 -2 3 -19 0 -36
-6 -22 -8 -36 -7 -53 1 -19 11 -21 10 -16 -5 4 -9 7 -19 7 -21 0 -2 176 -4
390 -4 l390 0 0 610 0 610 -257 -1 c-142 0 -252 -3 -245 -6z"/>
<path d="M1749 1206 c-3 -3 -29 -10 -58 -16 -54 -10 -101 -29 -135 -55 -31
-24 -10 -29 22 -6 17 12 36 21 44 21 8 0 19 5 25 11 6 6 28 9 49 7 34 -3 39
-6 42 -31 2 -16 -2 -34 -8 -42 -9 -11 -7 -19 9 -36 23 -25 13 -49 -20 -49 -12
0 -16 -5 -13 -15 8 -20 -6 -19 -23 3 -8 9 -12 11 -8 4 6 -11 -27 -64 -36 -59
-2 1 1 -3 8 -9 18 -15 16 -37 -1 -31 -17 7 -51 -57 -48 -88 2 -20 2 -20 -7 0
-5 11 -6 25 -3 30 10 17 11 35 1 35 -5 0 -9 16 -9 37 0 20 -3 33 -7 29 -4 -4
-6 -22 -5 -41 3 -25 -3 -39 -25 -59 -22 -21 -30 -23 -40 -13 -15 15 -6 57 13
57 8 0 14 5 14 10 0 17 18 11 23 -7 4 -16 5 -16 6 -1 1 22 -13 30 -43 22 -26
-6 -52 -54 -43 -78 3 -8 0 -22 -7 -31 -10 -14 -10 -27 -1 -63 11 -43 15 -47
44 -48 39 -1 51 12 53 64 1 23 5 47 10 54 5 8 8 -16 6 -59 -3 -64 -1 -73 17
-77 10 -3 20 -4 21 -3 2 1 4 46 5 100 l3 98 40 20 c26 12 42 16 44 9 3 -8 8
-8 17 0 9 8 14 7 18 -4 4 -9 2 -18 -3 -21 -15 -9 -11 -47 5 -69 11 -15 17 -17
29 -7 16 13 27 79 14 87 -4 3 -8 -4 -8 -15 0 -26 -10 -51 -21 -51 -5 0 -9 7
-9 15 0 8 5 15 10 15 6 0 10 26 10 59 0 33 5 63 10 66 7 4 7 12 0 25 -5 10
-10 43 -11 72 -1 66 -12 142 -20 134z m-2 -214 c-21 -23 -22 -33 -2 -26 19 8
19 -6 -1 -34 -19 -27 -24 -27 -52 -1 -21 18 -22 46 -2 34 5 -3 21 6 36 20 31
29 45 33 21 7z m-214 -206 c-1 -17 2 -24 9 -20 6 4 9 1 6 -7 -2 -8 -16 -15
-31 -17 -23 -3 -26 0 -25 30 1 42 4 47 26 43 12 -2 16 -10 15 -29z"/>
<path d="M1840 1136 c0 -36 -3 -72 -7 -82 -6 -16 -7 -16 -14 2 -7 18 -8 18 -8
-1 -1 -12 -5 -25 -11 -31 -7 -7 1 -9 24 -6 44 5 50 -7 65 -118 22 -163 52
-209 142 -214 l54 -3 -5 61 -4 61 -6 -50 -5 -50 -40 2 c-40 3 -83 34 -89 64
-2 8 -6 21 -9 29 -3 8 -8 58 -11 110 -4 85 -7 97 -29 115 -28 23 -43 60 -28
70 7 4 7 12 -1 24 -19 32 -3 51 39 47 41 -3 107 -38 95 -50 -4 -4 -1 -6 7 -4
8 2 25 -12 38 -31 18 -27 23 -48 24 -100 1 -36 1 -71 0 -78 -1 -6 3 -14 9 -18
6 -4 10 27 10 89 0 57 -4 96 -10 96 -5 0 -10 5 -10 10 0 30 -117 101 -187 114
l-33 6 0 -64z"/>
<path d="M785 1180 c-9 -15 4 -30 26 -30 22 0 24 11 7 28 -15 15 -25 15 -33 2z"/>
<path d="M1341 1173 c1 -16 18 -47 18 -35 1 6 8 12 17 12 14 0 14 2 0 15 -15
16 -36 20 -35 8z"/>
<path d="M185 1104 c-31 -64 -28 -98 4 -36 12 23 28 42 36 42 19 0 20 36 1 43
-10 4 -23 -12 -41 -49z"/>
<path d="M343 1128 c-19 -18 -24 -19 -38 -8 -8 7 -19 10 -23 6 -4 -4 1 -12 11
-18 18 -9 18 -11 1 -29 -9 -10 -12 -19 -6 -19 6 0 14 5 17 11 4 6 13 8 21 5 9
-3 14 2 14 14 0 11 9 25 20 32 20 13 27 28 12 28 -4 0 -17 -10 -29 -22z"/>
<path d="M1000 1143 c0 -7 -10 -10 -26 -7 -29 5 -25 -11 5 -19 28 -7 49 9 33
25 -8 8 -12 9 -12 1z"/>
<path d="M814 1109 c-10 -17 13 -36 27 -22 12 12 4 33 -11 33 -5 0 -12 -5 -16
-11z"/>
<path d="M1508 1085 c-23 -30 -26 -134 -5 -116 8 6 17 8 20 4 12 -11 8 7 -8
38 -13 23 -13 34 -4 52 7 12 16 25 22 28 5 4 5 9 1 12 -5 3 -17 -6 -26 -18z"/>
<path d="M250 1098 c-1 -5 -3 -12 -4 -18 0 -5 -5 -9 -11 -7 -5 1 -9 6 -7 10 1
5 -2 6 -8 2 -5 -3 -10 -16 -10 -29 0 -12 -5 -27 -12 -34 -9 -9 -9 -12 0 -12 7
0 12 -4 12 -10 0 -5 -9 -10 -20 -10 -11 0 -20 -4 -20 -10 0 -15 26 -12 41 6
11 14 13 14 21 0 5 -9 6 -22 2 -29 -4 -6 -4 -9 1 -5 4 4 14 3 22 -3 9 -9 13
-8 13 0 0 6 -4 11 -8 11 -5 0 -16 19 -26 41 -19 42 -16 50 18 62 4 1 6 12 3
22 -2 11 -6 17 -7 13z"/>
<path d="M754 1084 c13 -31 18 -60 9 -49 -4 6 -21 17 -38 27 -29 16 -31 15
-48 -8 -10 -13 -15 -29 -12 -34 3 -6 1 -10 -6 -10 -11 0 -9 15 7 54 5 13 4 17
-3 13 -6 -4 -14 -19 -17 -33 -5 -20 -1 -33 15 -50 20 -22 21 -25 7 -41 -14
-17 -21 -37 -35 -105 -3 -16 -2 -44 1 -63 6 -30 11 -35 34 -34 17 1 20 3 10 6
-12 3 -18 14 -18 36 0 18 -3 43 -7 56 -5 20 -3 22 14 17 26 -8 48 35 33 64
-16 30 -12 42 13 38 19 -3 22 -9 22 -45 0 -32 -4 -43 -15 -43 -13 0 -13 -2 0
-9 23 -15 30 -3 30 50 0 36 4 49 12 47 7 -3 19 3 28 13 8 9 25 20 37 24 18 5
27 0 44 -27 l21 -33 -7 28 c-3 17 -1 35 6 43 14 17 -2 19 -20 2 -9 -9 -15 -9
-17 -2 -3 6 -18 9 -34 6 -16 -2 -28 -7 -26 -11 3 -4 -4 -13 -15 -19 -19 -12
-19 -11 -9 9 13 24 5 84 -12 95 -8 5 -9 1 -4 -12z m-40 -41 c-6 17 -5 18 15 6
26 -17 27 -45 1 -59 -14 -8 -25 -7 -39 1 -16 10 -17 17 -9 41 10 27 11 28 24
11 13 -17 14 -17 8 0z"/>
<path d="M442 1068 c-6 -7 -13 -30 -17 -50 -6 -33 -9 -36 -26 -27 -15 7 -21 6
-25 -6 -9 -22 -24 -19 -24 5 0 12 10 25 25 32 13 6 22 15 19 20 -3 5 -15 2
-25 -8 -10 -9 -20 -14 -20 -11 -1 4 -2 12 -3 17 -1 10 -16 15 -16 5 0 -88 2
-108 8 -100 4 6 22 15 41 22 31 11 33 11 28 -7 -4 -14 0 -20 11 -21 15 -1 -39
-30 -63 -34 -5 -1 -17 -3 -25 -4 -9 -2 -6 -6 8 -10 22 -6 24 -11 25 -104 1
-61 -2 -96 -8 -93 -5 2 -19 0 -30 -5 -16 -6 -14 -8 12 -8 17 -1 38 -4 47 -7
26 -10 18 -23 -10 -18 -22 4 -23 3 -12 -10 7 -7 16 -12 21 -9 5 3 4 -97 -2
-114 -1 -2 -28 -3 -60 -3 -38 0 -61 4 -64 13 -3 7 -6 5 -6 -5 -1 -10 6 -18 14
-18 17 0 20 -16 5 -25 -5 -3 -10 -16 -9 -28 0 -21 1 -21 9 -2 7 17 9 17 9 3 1
-14 9 -18 39 -17 28 0 32 2 17 8 -11 5 -26 6 -32 4 -9 -4 -13 5 -13 27 0 24 4
31 17 28 9 -2 20 -14 24 -28 l7 -25 1 28 c1 21 6 27 22 27 17 0 20 -5 17 -25
-3 -14 0 -25 6 -26 6 0 2 -4 -9 -9 -19 -8 -19 -9 3 -9 14 -1 22 -6 19 -13 -2
-9 -25 -13 -65 -13 -55 0 -61 -2 -60 -20 3 -47 -14 -158 -23 -144 -7 11 -9 9
-9 -7 0 -19 17 -34 39 -34 5 0 8 24 8 53 -1 107 3 137 17 137 15 0 24 -43 25
-115 0 -29 -2 -36 -9 -25 -8 12 -10 11 -10 -7 0 -17 4 -20 21 -16 20 6 21 10
14 84 l-6 79 25 0 c26 0 26 -1 26 -80 0 -57 -4 -80 -12 -80 -9 0 -8 -3 2 -9
21 -14 32 -2 28 30 -3 16 -1 29 3 29 4 0 10 -19 14 -42 3 -24 9 -51 11 -60 3
-9 -4 -26 -15 -37 -19 -19 -19 -19 17 -26 23 -4 38 -3 40 4 2 6 16 12 30 12
26 1 26 1 -3 8 -29 6 -30 8 -33 72 -2 50 1 71 12 82 12 12 13 17 3 21 -6 3 0
5 15 3 19 -3 28 1 31 15 3 12 14 18 31 18 21 0 26 -5 26 -25 0 -29 -28 -45
-41 -24 -7 11 -9 11 -9 1 0 -7 -3 -11 -7 -9 -5 3 -4 -32 1 -78 10 -83 10 -83
40 -87 17 -2 39 -2 49 0 20 4 23 22 4 22 -19 0 -47 33 -47 53 0 9 -5 16 -12
14 -6 -1 -14 13 -18 31 -8 34 -4 38 20 22 9 -6 11 -10 3 -10 -7 0 -10 -7 -7
-15 10 -25 24 -17 24 14 0 39 9 61 26 61 19 0 18 10 -2 25 -14 9 -14 16 -5 33
7 13 9 26 7 31 -3 5 1 11 9 15 8 3 17 1 20 -4 9 -15 32 -12 50 6 9 9 23 13 32
9 15 -5 15 -7 3 -15 -13 -8 -13 -10 1 -10 18 0 32 -47 18 -56 -15 -9 -10 -34
6 -34 20 0 22 110 3 110 -15 1 21 23 41 26 11 2 13 -13 8 -82 -2 -47 -8 -88
-12 -92 -4 -4 -14 2 -22 13 -14 17 -15 18 -9 2 3 -10 6 -31 7 -45 l1 -27 8 25
c5 15 8 18 9 9 1 -19 71 -33 71 -14 0 6 3 7 8 0 4 -5 16 -11 27 -13 20 -3 20
-3 1 11 -19 14 -19 16 -3 50 14 28 16 53 12 129 -4 51 -10 118 -15 148 -8 50
-9 49 -4 -22 l5 -78 -37 0 -36 0 3 79 c2 44 1 77 -3 74 -5 -2 -8 -38 -8 -79 0
-71 -1 -75 -20 -69 -14 4 -20 2 -20 -8 0 -19 -47 -19 -54 -1 -3 8 -2 14 3 14
4 0 6 33 4 73 -3 39 -5 83 -5 97 0 19 -2 21 -9 9 -4 -9 -9 -46 -10 -83 -2 -57
-4 -66 -18 -61 -13 5 -14 4 -3 -6 6 -7 12 -28 12 -46 0 -26 -4 -33 -20 -33
-11 0 -19 3 -19 8 3 18 -2 32 -12 32 -6 0 -9 -7 -5 -15 3 -9 0 -15 -9 -15 -9
0 -12 6 -9 17 5 15 4 16 -5 3 -6 -8 -11 -32 -11 -53 0 -23 -4 -36 -10 -32 -5
3 -10 1 -10 -5 0 -6 -10 -10 -22 -8 -20 3 -24 11 -30 56 -3 30 -2 67 2 83 5
17 5 27 0 24 -13 -8 -30 -74 -30 -117 l0 -38 -45 0 -45 0 -1 53 c0 28 0 95 1
146 1 86 -1 97 -20 111 -19 15 -20 22 -14 111 l7 96 34 12 c19 7 37 11 40 8 2
-3 -5 -8 -17 -12 -19 -6 -22 -12 -17 -47 5 -37 30 -78 48 -78 4 0 17 16 29 35
l21 35 -26 35 c-16 20 -25 41 -21 51 3 8 -1 25 -9 37 -12 17 -15 18 -15 5 0
-9 -7 -18 -15 -22 -18 -6 -19 -1 -5 25 6 10 17 19 25 19 8 0 15 5 15 10 0 6
-5 10 -11 10 -7 0 -8 11 -4 30 7 32 3 37 -13 18z m444 -681 c2 -133 -29 -135
-34 -2 -4 77 -2 83 15 81 16 -3 18 -13 19 -79z m-411 -40 c-1 -12 -3 -28 -4
-34 -1 -15 -61 -18 -61 -3 0 6 12 11 28 11 23 2 24 2 5 6 -13 2 -23 6 -23 8 0
17 15 31 34 33 19 1 23 -3 21 -21z m378 -49 c3 -12 4 -25 1 -30 -7 -12 -54
-10 -54 2 0 6 7 10 15 10 8 0 15 9 15 20 0 27 16 26 23 -2z"/>
<path d="M253 1021 c4 -26 17 -41 35 -41 14 1 14 2 -3 12 -17 10 -17 12 -3 17
14 5 13 8 -7 17 -21 10 -24 9 -22 -5z"/>
<path d="M1207 984 c-14 -14 -7 -19 28 -19 19 0 34 5 32 10 -4 12 -50 19 -60
9z"/>
<path d="M798 950 c-7 -11 -16 -20 -21 -20 -4 0 -5 5 -2 10 3 6 2 10 -2 10 -5
0 -9 -16 -9 -36 0 -32 1 -34 14 -17 7 10 19 17 26 15 9 -1 13 8 12 28 -1 35
-2 36 -18 10z"/>
<path d="M830 944 c0 -18 18 -36 29 -30 17 11 13 -20 -5 -35 -12 -10 -20 -10
-35 -1 -26 17 -32 15 -26 -7 4 -15 -2 -22 -24 -30 -21 -7 -29 -7 -29 1 0 6 -2
9 -5 7 -7 -8 7 -49 17 -49 6 0 8 7 4 15 -3 8 -1 15 5 15 5 0 14 -12 19 -26 17
-44 9 -121 -11 -109 -4 3 -5 13 -2 22 6 15 5 16 -9 3 -13 -12 -13 -17 -1 -28
16 -16 17 -49 2 -54 -7 -2 -10 -11 -7 -18 7 -22 37 41 45 95 6 48 12 52 42 33
15 -9 22 -8 35 5 21 20 19 188 -2 180 -7 -3 -19 0 -27 7 -8 7 -15 9 -15 4z
m31 -122 c6 -29 4 -33 -15 -30 -14 2 -20 -2 -18 -12 2 -8 1 -12 -3 -8 -4 4 -9
25 -10 48 -3 37 -1 41 18 38 15 -2 23 -13 28 -36z"/>
<path d="M1210 939 c0 -5 -4 -7 -10 -4 -5 3 -10 -1 -10 -9 0 -9 9 -16 20 -16
13 0 20 7 20 20 0 11 -4 20 -10 20 -5 0 -10 -5 -10 -11z"/>
<path d="M550 881 c-12 -29 -8 -42 28 -100 1 -3 9 4 17 15 20 27 19 84 -2 100
-25 19 -29 18 -43 -15z m48 -34 c2 -10 -3 -17 -12 -17 -18 0 -29 16 -21 31 9
14 29 6 33 -14z"/>
<path d="M910 870 c-5 -102 -5 -170 1 -170 11 0 19 144 10 180 l-9 35 -2 -45z"/>
<path d="M1852 895 c4 -6 0 -21 -8 -35 l-15 -25 4 28 c3 20 1 25 -6 18 -6 -6
-11 -27 -13 -48 -1 -21 -2 -43 -3 -50 -1 -7 -8 -10 -17 -6 -12 4 -15 0 -12
-17 1 -13 9 -25 17 -28 8 -3 11 0 7 6 -4 6 7 33 24 60 16 27 30 54 30 60 0 6
5 12 11 14 7 2 4 10 -7 18 -10 8 -15 10 -12 5z"/>
<path d="M1200 840 c0 -32 -4 -49 -10 -45 -6 4 -10 -13 -10 -44 0 -50 0 -50
-40 -61 -22 -6 -38 -15 -35 -20 4 -7 13 -6 25 0 27 15 30 13 31 -17 0 -28 0
-28 10 -5 5 13 7 28 3 33 -3 5 0 9 5 9 6 0 11 12 11 26 0 23 3 25 29 19 17 -3
32 -2 36 4 10 18 23 12 28 -11 3 -14 5 -9 6 15 1 42 -1 53 -10 50 -10 -3 -18
47 -9 52 5 3 6 14 3 25 -4 16 -9 18 -19 10 -9 -8 -18 -8 -33 0 -20 10 -21 8
-21 -40z m55 -23 c0 -30 -4 -33 -34 -28 -5 0 -8 16 -6 34 4 39 2 36 23 31 12
-4 17 -15 17 -37z"/>
<path d="M1679 884 c-1 -5 -1 -12 0 -16 0 -4 -6 -5 -14 -2 -12 5 -15 -3 -15
-36 0 -22 4 -39 9 -36 5 4 11 0 14 -6 4 -14 37 43 37 65 0 16 -29 45 -31 31z"/>
<path d="M1849 771 c-22 -18 -24 -27 -24 -107 0 -61 -4 -89 -12 -91 -10 -4
-13 12 -13 57 0 40 -5 66 -14 76 -13 12 -14 7 -8 -39 3 -28 6 -75 7 -103 0
-51 0 -51 30 -50 27 1 30 -2 33 -31 2 -25 8 -31 23 -30 14 1 19 7 16 18 -6 24
8 43 27 36 9 -4 13 -14 11 -27 -2 -11 0 -20 6 -20 5 0 9 11 9 25 0 18 5 25 20
25 15 0 20 -7 20 -29 0 -16 -6 -32 -12 -34 -7 -3 5 -6 27 -6 35 -1 41 2 42 20
2 21 1 21 -12 3 -10 -14 -17 -16 -25 -8 -19 19 -2 52 28 57 15 2 3 5 -25 6
-29 0 -53 5 -53 9 0 4 -16 6 -35 4 -37 -4 -95 14 -95 29 0 5 5 9 10 9 6 0 10
23 10 51 0 31 4 48 10 44 6 -3 10 -1 10 4 0 6 -3 11 -8 11 -4 0 -7 18 -7 39 0
22 3 37 7 35 4 -3 12 5 18 16 13 25 9 25 -21 1z"/>
<path d="M1648 767 c-5 -10 -8 -51 -7 -90 0 -57 2 -67 10 -48 5 14 9 54 7 90
-2 42 -6 59 -10 48z"/>
<path d="M1354 757 c3 -10 7 -46 8 -80 l2 -62 3 53 c4 55 9 61 27 36 11 -14
13 -14 27 3 13 16 13 17 -3 4 -10 -7 -18 -9 -18 -4 0 6 -12 23 -26 39 -17 19
-24 23 -20 11z"/>
<path d="M1431 746 c-7 -8 -8 -17 -3 -20 5 -3 7 -16 5 -30 -3 -13 0 -27 6 -30
7 -5 11 9 11 43 0 55 -2 58 -19 37z"/>
<path d="M1002 690 c-1 -32 3 -62 7 -65 5 -2 9 24 10 60 0 36 -3 65 -7 65 -5
0 -9 -27 -10 -60z"/>
<path d="M1880 735 c-16 -19 -3 -40 16 -24 15 13 19 39 5 39 -5 0 -14 -7 -21
-15z"/>
<path d="M631 723 c-1 -13 -5 -23 -11 -23 -6 0 -10 -30 -10 -70 0 -60 3 -70
18 -70 16 -1 16 -1 0 -14 -22 -16 -24 -48 -3 -40 8 4 15 1 15 -7 0 -7 3 -9 7
-5 11 10 3 170 -8 174 -6 2 -3 15 6 29 9 14 14 27 11 31 -3 3 -6 -1 -7 -9 0
-8 -4 -6 -9 6 -8 19 -9 19 -9 -2z"/>
<path d="M1130 728 c0 -4 -15 -8 -34 -8 -40 0 -52 -12 -36 -37 10 -17 10 -16
8 2 -2 15 3 20 22 22 57 4 70 8 70 18 0 7 -7 12 -15 12 -8 0 -15 -4 -15 -9z"/>
<path d="M866 712 c14 -8 53 -132 55 -171 2 -23 2 -24 6 -3 3 14 12 22 24 22
14 0 19 -7 19 -29 0 -25 -5 -30 -27 -34 -21 -4 -19 -4 7 -3 33 1 35 3 35 36 0
19 -3 55 -6 80 l-6 45 -1 -42 c-3 -58 -20 -54 -25 5 l-3 47 -2 -48 c-3 -68
-22 -49 -22 21 0 35 -4 52 -9 44 -6 -10 -10 -7 -15 12 -4 16 -13 26 -24 26
-11 0 -13 -3 -6 -8z"/>
<path d="M1574 593 c13 -38 26 -83 29 -100 6 -30 4 -33 -18 -33 -22 0 -25 4
-26 38 -1 62 -8 23 -17 -90 -8 -111 -1 -131 27 -87 8 15 9 24 2 28 -11 7 -10
29 2 48 4 7 0 13 -10 16 -13 3 -11 5 7 7 23 1 23 2 5 9 -18 7 -16 9 12 15 35
8 57 1 47 -15 -3 -5 -10 -7 -15 -4 -9 6 -12 -6 -11 -60 0 -53 2 -65 10 -65 5
0 6 23 2 50 -4 28 -3 53 2 56 4 3 8 -1 9 -8 1 -7 2 -20 3 -28 2 -8 3 -27 4
-41 1 -14 11 -37 23 -50 18 -21 18 -25 5 -35 -9 -6 -16 -21 -16 -33 0 -12 -5
-31 -10 -42 -9 -16 -7 -19 15 -19 23 0 25 4 25 43 0 28 3 37 9 28 7 -10 9 -7
8 12 -1 15 -5 27 -9 27 -5 0 -8 18 -8 40 0 29 -4 40 -15 40 -12 0 -15 15 -15
73 0 50 -3 67 -10 57 -8 -12 -10 -12 -10 5 0 11 -3 31 -5 45 -5 24 -5 24 4 3
16 -36 21 -27 20 30 -1 30 -4 40 -6 24 -3 -19 -9 -27 -18 -23 -8 3 -16 2 -18
-2 -2 -4 -2 0 1 8 5 18 6 26 4 68 -2 28 -5 32 -31 32 l-30 0 23 -67z"/>
<path d="M2011 642 c9 -14 8 -25 -5 -50 l-17 -32 36 0 c34 0 35 1 35 40 0 29
-5 42 -19 50 -31 16 -43 13 -30 -8z"/>
<path d="M1037 636 c-5 -11 1 -14 23 -11 16 2 37 8 47 14 23 13 8 14 -17 1
-13 -7 -21 -7 -25 0 -9 14 -22 12 -28 -4z"/>
<path d="M2104 616 c5 -19 3 -26 -9 -26 -8 0 -15 -7 -15 -15 0 -9 9 -15 23
-15 18 0 19 2 7 10 -10 6 -11 10 -2 10 15 0 16 46 1 56 -9 5 -10 -1 -5 -20z"/>
<path d="M230 605 c0 -16 -6 -25 -16 -25 -11 0 -14 -6 -9 -21 4 -12 3 -19 -2
-16 -4 3 -7 -13 -5 -35 3 -28 7 -36 13 -27 7 11 9 11 9 -3 0 -9 -9 -20 -20
-23 -11 -3 -20 -10 -20 -15 0 -4 11 -3 25 3 26 13 35 51 13 60 -10 4 -10 6 0
6 6 1 12 6 12 12 0 5 -5 7 -12 3 -8 -5 -9 -2 -5 10 4 10 7 22 7 28 0 6 6 8 13
5 9 -3 12 5 9 29 -5 40 -12 45 -12 9z"/>
<path d="M562 615 c-17 -12 -27 -13 -44 -5 -22 11 -22 10 -4 -4 23 -19 32 -20
41 -6 9 14 23 13 28 -2 2 -7 3 -5 2 4 -2 9 2 19 9 22 6 2 6 5 1 5 -6 1 -20 -6
-33 -14z"/>
<path d="M1360 601 c0 -9 -8 -12 -25 -9 -28 6 -27 6 -19 -16 7 -17 34 -22 34
-7 0 5 7 11 15 13 10 2 12 7 5 18 -8 12 -10 12 -10 1z"/>
<path d="M1065 542 c-8 -48 -4 -122 7 -122 4 0 8 36 8 80 0 44 -2 80 -4 80 -2
0 -7 -17 -11 -38z"/>
<path d="M1673 505 c0 -38 2 -53 4 -32 2 20 2 52 0 70 -2 17 -4 1 -4 -38z"/>
<path d="M1708 542 c-2 -16 2 -34 9 -41 11 -9 13 -4 13 29 0 46 -16 54 -22 12z"/>
<path d="M1033 495 c0 -33 2 -45 4 -27 2 18 2 45 0 60 -2 15 -4 0 -4 -33z"/>
<path d="M1390 493 c0 -36 4 -63 10 -63 6 0 10 -8 10 -18 0 -10 5 -23 10 -28
7 -7 7 -20 2 -35 -10 -28 -2 -71 15 -76 9 -3 11 9 6 45 -3 27 -1 57 4 66 7 12
9 4 9 -28 -1 -25 4 -50 9 -55 7 -7 9 15 7 64 -3 69 -2 75 16 75 18 0 20 -5 17
-52 l-4 -53 10 54 c9 43 8 55 -3 62 -24 16 -56 10 -63 -11 -5 -17 -25 -29 -25
-16 0 2 -3 11 -6 20 -4 11 0 16 12 16 16 0 16 2 -4 16 -12 8 -22 21 -22 27 0
7 4 6 10 -3 9 -13 10 -13 10 1 0 8 -7 24 -15 35 -13 17 -14 14 -15 -43z"/>
<path d="M2114 539 c-3 -6 -17 -9 -30 -6 -33 6 -30 -9 3 -18 21 -5 24 -8 12
-16 -12 -7 -11 -9 2 -9 11 0 18 11 21 30 5 32 3 36 -8 19z"/>
<path d="M1334 508 c1 -27 -3 -34 -21 -36 -18 -3 -22 3 -26 30 l-4 33 -1 -33
-2 -33 -70 3 c-68 3 -71 3 -78 -22 -3 -14 -6 -44 -6 -67 1 -35 -2 -43 -18 -43
-23 0 -26 58 -3 66 8 4 14 16 14 28 -1 15 -3 16 -6 5 -5 -22 -41 -31 -66 -18
-16 9 -18 8 -14 -8 17 -63 17 -73 0 -74 -16 0 -15 -2 2 -9 18 -8 17 -9 -8 -9
-17 -1 -26 -5 -22 -12 4 -6 13 -8 21 -5 9 3 14 -2 14 -14 0 -13 5 -18 15 -14
8 4 15 10 15 16 0 5 -4 7 -9 4 -4 -3 -6 7 -3 21 l5 27 21 -27 c24 -30 41 -34
49 -13 4 10 -3 16 -21 19 l-27 4 27 2 c15 0 33 -6 42 -14 8 -8 16 -15 18 -15
2 0 2 36 0 79 -3 76 -2 80 17 78 19 -1 21 -8 21 -78 0 -66 2 -77 17 -75 21 1
30 -33 11 -45 -9 -6 -9 -9 -1 -9 7 0 17 8 22 18 10 16 10 16 11 0 0 -10 5 -18
11 -18 6 0 8 7 5 16 -4 10 5 27 24 46 30 29 39 45 20 33 -5 -3 -10 1 -10 9 0
9 -5 16 -11 16 -6 0 -3 8 7 17 14 14 14 18 2 22 -11 5 -12 11 -3 28 l12 23 10
-23 c6 -12 15 -33 21 -47 6 -14 11 -19 11 -12 1 7 6 10 11 7 6 -3 10 3 10 13
0 11 -9 22 -20 25 -17 4 -20 14 -20 61 0 31 -4 56 -9 56 -5 0 -8 -15 -7 -32z
m-46 -130 c1 -69 -1 -78 -17 -78 -16 0 -18 10 -20 78 -2 70 0 78 17 78 17 0
19 -9 20 -78z"/>
<path d="M1001 500 c-2 -19 -2 -47 -1 -62 1 -16 -3 -28 -10 -28 -8 0 -8 -6 1
-21 8 -17 8 -20 -1 -14 -9 5 -10 1 -5 -16 19 -61 26 -35 22 77 -1 55 -4 83 -6
64z"/>
<path d="M925 442 c11 -66 9 -146 -3 -150 -21 -7 -13 -22 12 -22 23 0 25 4 28
70 3 69 -7 97 -15 43 -4 -26 -4 -26 -6 5 -1 22 3 32 14 32 10 0 15 10 15 30 0
26 -4 30 -26 30 -24 0 -25 -2 -19 -38z"/>
<path d="M1701 458 c-1 -17 5 -28 17 -32 9 -2 -1 -2 -23 0 -31 4 -36 3 -23 -6
18 -11 16 -49 -3 -60 -7 -5 -5 -9 6 -14 23 -9 25 -8 25 9 0 8 7 15 15 15 11 0
15 -12 15 -44 0 -23 3 -71 6 -105 l7 -61 -27 0 c-15 0 -25 -3 -23 -8 7 -10
107 -2 107 9 0 5 -7 12 -15 15 -8 4 -15 17 -15 31 0 21 3 23 14 14 9 -7 17 -8
20 -3 3 6 -1 12 -9 16 -11 4 -15 20 -15 56 0 43 -3 50 -20 50 -17 0 -20 7 -21
53 0 55 -16 113 -19 72 -1 -20 -1 -20 -10 0 -8 18 -9 17 -9 -7z m67 -178 c0
-16 -4 -32 -9 -35 -5 -4 -9 10 -9 29 0 43 17 49 18 6z"/>
<path d="M1920 425 c0 -14 5 -25 10 -25 6 0 10 -6 10 -14 0 -8 7 -16 15 -20
12 -4 13 -2 6 13 -6 10 -7 21 -4 25 3 3 -1 6 -10 6 -20 0 -23 26 -4 33 7 3 5
6 -5 6 -13 1 -18 -7 -18 -24z"/>
<path d="M1764 417 c13 -10 17 -22 14 -40 -3 -15 -1 -24 3 -21 5 3 9 -4 9 -16
0 -12 4 -19 8 -16 4 3 6 26 3 53 -5 42 -9 48 -31 51 -24 3 -24 3 -6 -11z"/>
<path d="M2092 344 c2 -46 10 -90 16 -96 18 -18 22 -6 12 37 -14 67 -15 120
-2 118 21 -5 13 14 -9 20 -21 6 -21 3 -17 -79z"/>
<path d="M185 411 c-4 -7 0 -8 11 -4 16 6 17 0 11 -61 -4 -38 -12 -75 -18 -82
-15 -18 -7 -27 15 -18 11 4 16 19 17 53 1 25 2 62 2 81 2 25 -3 36 -15 38 -9
2 -19 -2 -23 -7z"/>
<path d="M680 388 c0 -25 -3 -29 -10 -18 -7 11 -10 -1 -10 -40 0 -46 4 -58 21
-68 27 -17 79 -24 79 -12 0 6 -15 10 -34 10 l-33 0 0 78 0 77 7 -60 7 -60 1
63 c2 49 -1 62 -13 62 -10 0 -15 -10 -15 -32z"/>
<path d="M1850 336 c0 -72 -3 -85 -17 -89 -13 -3 -11 -5 6 -6 21 -1 23 -4 17
-33 -4 -24 -3 -29 4 -18 5 8 10 32 10 53 0 26 4 37 15 37 8 0 15 9 15 20 0 13
-5 18 -14 14 -17 -6 -32 52 -23 86 3 11 1 20 -4 20 -5 0 -9 -38 -9 -84z"/>
<path d="M2000 403 l35 -4 0 -57 c-1 -31 3 -65 7 -74 6 -13 5 -16 -5 -12 -9 3
-19 -9 -30 -36 -9 -23 -22 -40 -31 -40 -9 0 -16 -4 -16 -8 0 -4 -27 -6 -59 -4
-35 2 -62 -1 -66 -7 -4 -7 12 -11 48 -11 92 0 116 8 132 47 12 29 18 33 36 28
19 -6 21 -4 16 16 -3 13 -9 54 -13 91 -6 59 -5 67 12 71 11 3 -8 4 -41 4 -33
0 -44 -2 -25 -4z"/>
<path d="M1367 336 c3 -13 0 -33 -6 -45 -10 -19 -9 -21 11 -21 21 0 23 4 20
45 -3 28 -9 45 -17 45 -8 0 -11 -9 -8 -24z"/>
<path d="M1937 340 c6 -23 14 -25 31 -8 9 9 12 6 12 -13 0 -24 16 -49 31 -49
4 0 5 9 2 20 -3 11 -9 20 -14 20 -5 0 -9 10 -9 21 0 16 -5 20 -20 16 -11 -3
-20 -1 -20 4 0 5 -4 9 -9 9 -5 0 -7 -9 -4 -20z"/>
<path d="M1922 323 c-3 -22 -5 -27 -17 -58 -16 -40 -13 -77 5 -83 12 -4 13 -2
3 9 -7 7 -13 16 -13 19 0 12 64 9 72 -3 4 -7 8 4 8 25 0 20 -5 40 -11 44 -9 5
-10 -1 -5 -20 5 -21 3 -26 -13 -26 -17 0 -21 8 -24 53 -2 28 -4 46 -5 40z"/>
<path d="M1486 279 c-16 -16 -17 -23 -8 -41 18 -38 19 -52 5 -66 -24 -24 -15
-35 25 -27 47 9 48 9 23 34 -18 18 -19 25 -9 46 12 26 28 34 28 13 0 -9 3 -9
12 0 15 15 32 16 23 2 -3 -5 1 -10 9 -10 9 0 16 5 16 11 0 5 4 8 9 5 5 -4 16
-3 25 0 33 13 14 20 -49 18 -50 -1 -65 2 -65 13 0 8 -4 12 -9 9 -5 -4 -11 -2
-13 2 -1 5 -12 1 -22 -9z"/>
<path d="M631 222 c2 -34 3 -39 6 -17 3 17 9 35 14 41 6 8 4 14 -6 18 -12 4
-15 -3 -14 -42z"/>
<path d="M790 232 c-9 -4 -16 -23 -18 -49 -2 -40 -1 -43 24 -43 24 0 25 3 18
28 -4 15 -8 37 -8 50 -1 12 -1 22 -1 21 0 0 -7 -3 -15 -7z"/>
<path d="M1204 232 c-6 -4 -13 -26 -17 -49 -4 -38 -3 -43 14 -43 16 0 19 7 19
50 0 28 -1 50 -2 50 -2 0 -8 -4 -14 -8z"/>
<path d="M850 215 c0 -7 -3 -27 -6 -44 -6 -29 -4 -31 21 -31 21 0 26 4 21 16
-3 9 -6 28 -6 43 0 18 -5 28 -15 28 -8 0 -15 -6 -15 -12z"/>
<path d="M1012 198 c-2 -17 -8 -38 -14 -45 -8 -10 -4 -13 22 -13 31 0 32 1 26
31 -3 17 -6 38 -6 45 0 29 -26 13 -28 -18z"/>
<path d="M1097 223 c-2 -5 -5 -25 -6 -45 -2 -35 -1 -38 24 -38 22 0 26 3 20
18 -4 9 -10 29 -13 45 -4 26 -16 36 -25 20z"/>
<path d="M1250 208 c0 -13 -3 -34 -7 -47 -5 -19 -2 -22 13 -19 15 2 19 12 19
46 0 27 -4 42 -12 42 -7 0 -13 -10 -13 -22z"/>
</g>
</svg>
